<svg width="103" height="109" viewBox="0 0 103 109" fill="none" xmlns="http://www.w3.org/2000/svg">
<path d="M28 59C26.2292 59 24.7458 58.4 23.55 57.2C22.35 56.0042 21.75 54.5208 21.75 52.75V40.25H9.25C7.47916 40.25 5.99583 39.65 4.8 38.45C3.6 37.2542 3 35.7708 3 34C3 32.2292 3.6 30.7437 4.8 29.5437C5.99583 28.3479 7.47916 27.75 9.25 27.75H21.75V15.25C21.75 13.4792 22.35 11.9937 23.55 10.7937C24.7458 9.59791 26.2292 9 28 9C29.7708 9 31.2562 9.59791 32.4562 10.7937C33.6521 11.9937 34.25 13.4792 34.25 15.25V27.75H46.75C48.5208 27.75 50.0062 28.3479 51.2062 29.5437C52.4021 30.7437 53 32.2292 53 34C53 35.7708 52.4021 37.2542 51.2062 38.45C50.0062 39.65 48.5208 40.25 46.75 40.25H34.25V52.75C34.25 54.5208 33.6521 56.0042 32.4562 57.2C31.2562 58.4 29.7708 59 28 59ZM85.1875 59.3125L68.9375 49.9375C69.875 47.4375 70.5792 44.8583 71.05 42.2C71.5167 39.5458 71.75 36.8125 71.75 34C71.75 22.8542 68.1833 13.1917 61.05 5.0125C53.9125 -3.1625 44.9792 -7.97917 34.25 -9.4375V-28.1875C50.0833 -26.625 63.4167 -19.9583 74.25 -8.1875C85.0833 3.58333 90.5 17.6458 90.5 34C90.5 38.5833 90.0833 43.0104 89.25 47.2812C88.4167 51.5521 87.0625 55.5625 85.1875 59.3125V59.3125ZM28 96.5C19.3542 96.5 11.2292 94.8583 3.625 91.575C-3.97917 88.2958 -10.5938 83.8167 -16.2188 78.1375C-21.8437 72.4625 -26.2958 65.8229 -29.575 58.2187C-32.8583 50.6146 -34.5 42.5417 -34.5 34C-34.5 17.6458 -29.0833 3.58333 -18.25 -8.1875C-7.41667 -19.9583 5.91666 -26.625 21.75 -28.1875V-9.4375C11.0208 -7.97917 2.08958 -3.1625 -5.04375 5.0125C-12.1813 13.1917 -15.75 22.8542 -15.75 34C-15.75 46.0833 -11.4792 56.3958 -2.9375 64.9375C5.60416 73.4792 15.9167 77.75 28 77.75C34.875 77.75 41.3083 76.2917 47.3 73.375C53.2875 70.4583 58.3125 66.5 62.375 61.5L78.625 70.875C73 78.6875 65.7604 84.9104 56.9062 89.5437C48.0521 94.1812 38.4167 96.5 28 96.5Z" fill="#EEEEEE" fill-opacity="0.33"/>
</svg>
