<svg width="63" height="63" viewBox="0 0 63 63" fill="none" xmlns="http://www.w3.org/2000/svg">
<path d="M31.5 42C30.7563 42 30.1333 41.748 29.631 41.244C29.127 40.7418 28.875 40.1188 28.875 39.375V34.125H23.625C22.8813 34.125 22.2583 33.873 21.756 33.369C21.252 32.8668 21 32.2438 21 31.5C21 30.7563 21.252 30.1324 21.756 29.6284C22.2583 29.1261 22.8813 28.875 23.625 28.875H28.875V23.625C28.875 22.8813 29.127 22.2574 29.631 21.7534C30.1333 21.2511 30.7563 21 31.5 21C32.2437 21 32.8676 21.2511 33.3716 21.7534C33.8739 22.2574 34.125 22.8813 34.125 23.625V28.875H39.375C40.1187 28.875 40.7426 29.1261 41.2466 29.6284C41.7489 30.1324 42 30.7563 42 31.5C42 32.2438 41.7489 32.8668 41.2466 33.369C40.7426 33.873 40.1187 34.125 39.375 34.125H34.125V39.375C34.125 40.1188 33.8739 40.7418 33.3716 41.244C32.8676 41.748 32.2437 42 31.5 42ZM55.5187 42.1313L48.6937 38.1938C49.0875 37.1438 49.3833 36.0605 49.581 34.944C49.777 33.8293 49.875 32.6813 49.875 31.5C49.875 26.8188 48.377 22.7605 45.381 19.3253C42.3833 15.8918 38.6313 13.8688 34.125 13.2563V5.38126C40.775 6.03751 46.375 8.83751 50.925 13.7813C55.475 18.725 57.75 24.6313 57.75 31.5C57.75 33.425 57.575 35.2844 57.225 37.0781C56.875 38.8719 56.3062 40.5563 55.5187 42.1313V42.1313ZM31.5 57.75C27.8688 57.75 24.4563 57.0605 21.2625 55.6815C18.0688 54.3043 15.2906 52.423 12.9281 50.0378C10.5656 47.6543 8.69575 44.8656 7.3185 41.6719C5.9395 38.4781 5.25 35.0875 5.25 31.5C5.25 24.6313 7.525 18.725 12.075 13.7813C16.625 8.83751 22.225 6.03751 28.875 5.38126V13.2563C24.3687 13.8688 20.6176 15.8918 17.6216 19.3253C14.6239 22.7605 13.125 26.8188 13.125 31.5C13.125 36.575 14.9188 40.9063 18.5063 44.4938C22.0938 48.0813 26.425 49.875 31.5 49.875C34.3875 49.875 37.0895 49.2625 39.606 48.0375C42.1208 46.8125 44.2313 45.15 45.9375 43.05L52.7625 46.9875C50.4 50.2688 47.3594 52.8824 43.6406 54.8284C39.9219 56.7761 35.875 57.75 31.5 57.75Z" fill="#EEB405"/>
</svg>
