<svg width="126" height="130" viewBox="0 0 126 130" fill="none" xmlns="http://www.w3.org/2000/svg">
<path d="M14.7778 148C10.7139 148 7.23372 146.552 4.33728 143.656C1.44576 140.755 0 137.27 0 133.2V29.6C0 25.53 1.44576 22.0471 4.33728 19.1512C7.23372 16.2504 10.7139 14.8 14.7778 14.8H22.1667V0H36.9444V14.8H96.0556V0H110.833V14.8H118.222C122.286 14.8 125.766 16.2504 128.663 19.1512C131.554 22.0471 133 25.53 133 29.6V133.2C133 137.27 131.554 140.755 128.663 143.656C125.766 146.552 122.286 148 118.222 148H14.7778ZM14.7778 133.2H118.222V59.2H14.7778V133.2ZM14.7778 44.4H118.222V29.6H14.7778V44.4ZM14.7778 44.4V29.6V44.4ZM66.5 88.8C64.4065 88.8 62.6529 88.0896 61.2391 86.6688C59.8204 85.2529 59.1111 83.4967 59.1111 81.4C59.1111 79.3033 59.8204 77.5446 61.2391 76.1238C62.6529 74.7079 64.4065 74 66.5 74C68.5935 74 70.3496 74.7079 71.7683 76.1238C73.182 77.5446 73.8889 79.3033 73.8889 81.4C73.8889 83.4967 73.182 85.2529 71.7683 86.6688C70.3496 88.0896 68.5935 88.8 66.5 88.8ZM36.9444 88.8C34.8509 88.8 33.0948 88.0896 31.6762 86.6688C30.2624 85.2529 29.5556 83.4967 29.5556 81.4C29.5556 79.3033 30.2624 77.5446 31.6762 76.1238C33.0948 74.7079 34.8509 74 36.9444 74C39.038 74 40.7941 74.7079 42.2127 76.1238C43.6265 77.5446 44.3333 79.3033 44.3333 81.4C44.3333 83.4967 43.6265 85.2529 42.2127 86.6688C40.7941 88.0896 39.038 88.8 36.9444 88.8ZM96.0556 88.8C93.962 88.8 92.2084 88.0896 90.7947 86.6688C89.376 85.2529 88.6667 83.4967 88.6667 81.4C88.6667 79.3033 89.376 77.5446 90.7947 76.1238C92.2084 74.7079 93.962 74 96.0556 74C98.1491 74 99.9027 74.7079 101.316 76.1238C102.735 77.5446 103.444 79.3033 103.444 81.4C103.444 83.4967 102.735 85.2529 101.316 86.6688C99.9027 88.0896 98.1491 88.8 96.0556 88.8ZM66.5 118.4C64.4065 118.4 62.6529 117.69 61.2391 116.269C59.8204 114.853 59.1111 113.097 59.1111 111C59.1111 108.903 59.8204 107.147 61.2391 105.731C62.6529 104.31 64.4065 103.6 66.5 103.6C68.5935 103.6 70.3496 104.31 71.7683 105.731C73.182 107.147 73.8889 108.903 73.8889 111C73.8889 113.097 73.182 114.853 71.7683 116.269C70.3496 117.69 68.5935 118.4 66.5 118.4ZM36.9444 118.4C34.8509 118.4 33.0948 117.69 31.6762 116.269C30.2624 114.853 29.5556 113.097 29.5556 111C29.5556 108.903 30.2624 107.147 31.6762 105.731C33.0948 104.31 34.8509 103.6 36.9444 103.6C39.038 103.6 40.7941 104.31 42.2127 105.731C43.6265 107.147 44.3333 108.903 44.3333 111C44.3333 113.097 43.6265 114.853 42.2127 116.269C40.7941 117.69 39.038 118.4 36.9444 118.4ZM96.0556 118.4C93.962 118.4 92.2084 117.69 90.7947 116.269C89.376 114.853 88.6667 113.097 88.6667 111C88.6667 108.903 89.376 107.147 90.7947 105.731C92.2084 104.31 93.962 103.6 96.0556 103.6C98.1491 103.6 99.9027 104.31 101.316 105.731C102.735 107.147 103.444 108.903 103.444 111C103.444 113.097 102.735 114.853 101.316 116.269C99.9027 117.69 98.1491 118.4 96.0556 118.4Z" fill="#3B3A37" fill-opacity="0.16"/>
</svg>
