<svg width="48" height="53" viewBox="0 0 48 53" fill="none" xmlns="http://www.w3.org/2000/svg">
<path d="M5.25 52.5C3.80625 52.5 2.56987 51.9864 1.54087 50.9591C0.513625 49.9301 0 48.6938 0 47.25V10.5C0 9.05625 0.513625 7.82075 1.54087 6.7935C2.56987 5.7645 3.80625 5.25 5.25 5.25H7.875V0H13.125V5.25H34.125V0H39.375V5.25H42C43.4438 5.25 44.6801 5.7645 45.7091 6.7935C46.7364 7.82075 47.25 9.05625 47.25 10.5V47.25C47.25 48.6938 46.7364 49.9301 45.7091 50.9591C44.6801 51.9864 43.4438 52.5 42 52.5H5.25ZM5.25 47.25H42V21H5.25V47.25ZM5.25 15.75H42V10.5H5.25V15.75ZM5.25 15.75V10.5V15.75ZM23.625 31.5C22.8813 31.5 22.2583 31.248 21.756 30.744C21.252 30.2417 21 29.6187 21 28.875C21 28.1313 21.252 27.5074 21.756 27.0034C22.2583 26.5011 22.8813 26.25 23.625 26.25C24.3687 26.25 24.9926 26.5011 25.4966 27.0034C25.9989 27.5074 26.25 28.1313 26.25 28.875C26.25 29.6187 25.9989 30.2417 25.4966 30.744C24.9926 31.248 24.3687 31.5 23.625 31.5ZM13.125 31.5C12.3813 31.5 11.7574 31.248 11.2534 30.744C10.7511 30.2417 10.5 29.6187 10.5 28.875C10.5 28.1313 10.7511 27.5074 11.2534 27.0034C11.7574 26.5011 12.3813 26.25 13.125 26.25C13.8687 26.25 14.4926 26.5011 14.9966 27.0034C15.4989 27.5074 15.75 28.1313 15.75 28.875C15.75 29.6187 15.4989 30.2417 14.9966 30.744C14.4926 31.248 13.8687 31.5 13.125 31.5ZM34.125 31.5C33.3813 31.5 32.7583 31.248 32.256 30.744C31.752 30.2417 31.5 29.6187 31.5 28.875C31.5 28.1313 31.752 27.5074 32.256 27.0034C32.7583 26.5011 33.3813 26.25 34.125 26.25C34.8687 26.25 35.4917 26.5011 35.994 27.0034C36.498 27.5074 36.75 28.1313 36.75 28.875C36.75 29.6187 36.498 30.2417 35.994 30.744C35.4917 31.248 34.8687 31.5 34.125 31.5ZM23.625 42C22.8813 42 22.2583 41.748 21.756 41.244C21.252 40.7417 21 40.1187 21 39.375C21 38.6313 21.252 38.0083 21.756 37.506C22.2583 37.002 22.8813 36.75 23.625 36.75C24.3687 36.75 24.9926 37.002 25.4966 37.506C25.9989 38.0083 26.25 38.6313 26.25 39.375C26.25 40.1187 25.9989 40.7417 25.4966 41.244C24.9926 41.748 24.3687 42 23.625 42ZM13.125 42C12.3813 42 11.7574 41.748 11.2534 41.244C10.7511 40.7417 10.5 40.1187 10.5 39.375C10.5 38.6313 10.7511 38.0083 11.2534 37.506C11.7574 37.002 12.3813 36.75 13.125 36.75C13.8687 36.75 14.4926 37.002 14.9966 37.506C15.4989 38.0083 15.75 38.6313 15.75 39.375C15.75 40.1187 15.4989 40.7417 14.9966 41.244C14.4926 41.748 13.8687 42 13.125 42ZM34.125 42C33.3813 42 32.7583 41.748 32.256 41.244C31.752 40.7417 31.5 40.1187 31.5 39.375C31.5 38.6313 31.752 38.0083 32.256 37.506C32.7583 37.002 33.3813 36.75 34.125 36.75C34.8687 36.75 35.4917 37.002 35.994 37.506C36.498 38.0083 36.75 38.6313 36.75 39.375C36.75 40.1187 36.498 40.7417 35.994 41.244C35.4917 41.748 34.8687 42 34.125 42Z" fill="#3B3A37" fill-opacity="0.16"/>
</svg>
