<svg width="49" height="53" viewBox="0 0 49 53" fill="none" xmlns="http://www.w3.org/2000/svg">
<path d="M6.125 52.75C4.68125 52.75 3.44487 52.2364 2.41587 51.2091C1.38862 50.1801 0.875 48.9438 0.875 47.5V10.75C0.875 9.30625 1.38862 8.07075 2.41587 7.0435C3.44487 6.0145 4.68125 5.5 6.125 5.5H8.75V0.25H14V5.5H35V0.25H40.25V5.5H42.875C44.3188 5.5 45.5551 6.0145 46.5841 7.0435C47.6114 8.07075 48.125 9.30625 48.125 10.75V47.5C48.125 48.9438 47.6114 50.1801 46.5841 51.2091C45.5551 52.2364 44.3188 52.75 42.875 52.75H6.125ZM6.125 47.5H42.875V21.25H6.125V47.5ZM6.125 16H42.875V10.75H6.125V16ZM6.125 16V10.75V16ZM24.5 31.75C23.7563 31.75 23.1333 31.498 22.631 30.994C22.127 30.4917 21.875 29.8687 21.875 29.125C21.875 28.3813 22.127 27.7574 22.631 27.2534C23.1333 26.7511 23.7563 26.5 24.5 26.5C25.2437 26.5 25.8676 26.7511 26.3716 27.2534C26.8739 27.7574 27.125 28.3813 27.125 29.125C27.125 29.8687 26.8739 30.4917 26.3716 30.994C25.8676 31.498 25.2437 31.75 24.5 31.75ZM14 31.75C13.2563 31.75 12.6324 31.498 12.1284 30.994C11.6261 30.4917 11.375 29.8687 11.375 29.125C11.375 28.3813 11.6261 27.7574 12.1284 27.2534C12.6324 26.7511 13.2563 26.5 14 26.5C14.7437 26.5 15.3676 26.7511 15.8716 27.2534C16.3739 27.7574 16.625 28.3813 16.625 29.125C16.625 29.8687 16.3739 30.4917 15.8716 30.994C15.3676 31.498 14.7437 31.75 14 31.75ZM35 31.75C34.2563 31.75 33.6333 31.498 33.131 30.994C32.627 30.4917 32.375 29.8687 32.375 29.125C32.375 28.3813 32.627 27.7574 33.131 27.2534C33.6333 26.7511 34.2563 26.5 35 26.5C35.7437 26.5 36.3667 26.7511 36.869 27.2534C37.373 27.7574 37.625 28.3813 37.625 29.125C37.625 29.8687 37.373 30.4917 36.869 30.994C36.3667 31.498 35.7437 31.75 35 31.75ZM24.5 42.25C23.7563 42.25 23.1333 41.998 22.631 41.494C22.127 40.9917 21.875 40.3687 21.875 39.625C21.875 38.8813 22.127 38.2583 22.631 37.756C23.1333 37.252 23.7563 37 24.5 37C25.2437 37 25.8676 37.252 26.3716 37.756C26.8739 38.2583 27.125 38.8813 27.125 39.625C27.125 40.3687 26.8739 40.9917 26.3716 41.494C25.8676 41.998 25.2437 42.25 24.5 42.25ZM14 42.25C13.2563 42.25 12.6324 41.998 12.1284 41.494C11.6261 40.9917 11.375 40.3687 11.375 39.625C11.375 38.8813 11.6261 38.2583 12.1284 37.756C12.6324 37.252 13.2563 37 14 37C14.7437 37 15.3676 37.252 15.8716 37.756C16.3739 38.2583 16.625 38.8813 16.625 39.625C16.625 40.3687 16.3739 40.9917 15.8716 41.494C15.3676 41.998 14.7437 42.25 14 42.25ZM35 42.25C34.2563 42.25 33.6333 41.998 33.131 41.494C32.627 40.9917 32.375 40.3687 32.375 39.625C32.375 38.8813 32.627 38.2583 33.131 37.756C33.6333 37.252 34.2563 37 35 37C35.7437 37 36.3667 37.252 36.869 37.756C37.373 38.2583 37.625 38.8813 37.625 39.625C37.625 40.3687 37.373 40.9917 36.869 41.494C36.3667 41.998 35.7437 42.25 35 42.25Z" fill="#3B3A37"/>
</svg>
