<svg width="45" height="45" viewBox="0 0 45 45" fill="none" xmlns="http://www.w3.org/2000/svg">
<g clip-path="url(#clip0_3025_3356)">
<path d="M34.0938 33.3984H28.4688V35.5078H34.0938V33.3984Z" fill="white"/>
<path d="M31.2886 0.703125V24.6094C30.5651 24.6094 29.8549 24.6867 29.1792 24.8344V2.8125H21.7964L22.8511 0.703125H31.2886ZM5.97607 32.3438H21.6698C21.5222 33.0258 21.4448 33.7289 21.4448 34.4531H3.8667V0.703125H12.3042L13.3589 2.8125H5.97607V32.3438Z" fill="#D8DEE4"/>
<path d="M22.8511 0.703125L21.7964 2.8125L21.4448 3.51562H13.7104L13.3589 2.8125L12.3042 0.703125H22.8511Z" fill="#DCDCDC"/>
<path d="M28.4688 35.5078V36.9141C28.4688 37.6875 27.8359 38.3203 27.0625 38.3203C26.2891 38.3203 25.6562 37.6875 25.6562 36.9141V34.4531V31.9922C25.6562 31.2117 26.2891 30.5859 27.0625 30.5859C27.8359 30.5859 28.4688 31.2117 28.4688 31.9922V33.3984V35.5078ZM36.907 34.4531V36.9141C36.907 37.6875 36.2741 38.3203 35.5007 38.3203C34.7266 38.3203 34.0938 37.6875 34.0938 36.9141V35.5078V33.3984V31.9922C34.0938 31.2117 34.7266 30.5859 35.5007 30.5859C36.2741 30.5859 36.907 31.2117 36.907 31.9922V34.4531Z" fill="#DCDCDC"/>
<path d="M13.7104 3.51562H21.4448L21.7964 2.8125H29.1792V24.8344C25.4315 25.657 22.4925 28.6024 21.6698 32.3438H5.97607V2.8125H13.3589L13.7104 3.51562Z" fill="white"/>
<path d="M36.9072 34.4531V31.9922C36.9072 31.2117 36.2744 30.5859 35.501 30.5859C34.7269 30.5859 34.094 31.2117 34.094 31.9922V33.3984H28.469V31.9922C28.469 31.2117 27.8362 30.5859 27.0628 30.5859C26.2894 30.5859 25.6565 31.2117 25.6565 31.9922V34.4531V36.9141C25.6565 37.6875 26.2894 38.3203 27.0628 38.3203C27.8362 38.3203 28.469 37.6875 28.469 36.9141V35.5078H34.094V36.9141C34.094 37.6875 34.7269 38.3203 35.501 38.3203C36.2744 38.3203 36.9072 37.6875 36.9072 36.9141V34.4531ZM41.133 34.4531C41.133 39.8883 36.7237 44.2969 31.2886 44.2969C25.8464 44.2969 21.4448 39.8883 21.4448 34.4531C21.4448 33.7289 21.5222 33.0258 21.6698 32.3438C22.4925 28.6031 25.4315 25.657 29.1792 24.8344C29.8549 24.6867 30.5651 24.6094 31.2886 24.6094C36.7167 24.6094 41.133 29.018 41.133 34.4531Z" fill="#E4E6E9"/>
<path d="M13.7117 4.21879C13.4537 4.21879 13.2055 4.07676 13.0817 3.82996L11.6755 1.01746C11.5018 0.670119 11.6424 0.247541 11.9898 0.073869C12.3371 -0.0990998 12.7597 0.0408221 12.9334 0.388166L14.3396 3.20067C14.5133 3.54801 14.3727 3.97059 14.0253 4.14426C13.9248 4.19488 13.8172 4.21879 13.7117 4.21879ZM21.4447 4.21879C21.3392 4.21879 21.2317 4.19488 21.1311 4.14496C20.7838 3.97129 20.6432 3.54871 20.8168 3.20137L22.2231 0.388869C22.3974 0.0415253 22.82 -0.0983966 23.1667 0.0745721C23.514 0.248244 23.6546 0.670822 23.481 1.01817L22.0747 3.83067C21.951 4.07676 21.7028 4.21879 21.4447 4.21879Z" fill="black"/>
<path d="M21.4453 4.21875H13.7109C13.3221 4.21875 13.0078 3.90445 13.0078 3.51562C13.0078 3.1268 13.3221 2.8125 13.7109 2.8125H21.4453C21.8341 2.8125 22.1484 3.1268 22.1484 3.51562C22.1484 3.90445 21.8341 4.21875 21.4453 4.21875Z" fill="black"/>
<path d="M29.1797 3.51562H21.7969C21.408 3.51562 21.0938 3.20133 21.0938 2.8125C21.0938 2.42367 21.408 2.10938 21.7969 2.10938H29.1797C29.5685 2.10938 29.8828 2.42367 29.8828 2.8125C29.8828 3.20133 29.5685 3.51562 29.1797 3.51562ZM13.3594 3.51562H5.97656C5.58773 3.51562 5.27344 3.20133 5.27344 2.8125C5.27344 2.42367 5.58773 2.10938 5.97656 2.10938H13.3594C13.7482 2.10938 14.0625 2.42367 14.0625 2.8125C14.0625 3.20133 13.7482 3.51562 13.3594 3.51562Z" fill="black"/>
<path d="M21.4453 35.1562H3.86719C3.47836 35.1562 3.16406 34.842 3.16406 34.4531V0.703125C3.16406 0.314297 3.47836 0 3.86719 0H31.2891C31.6779 0 31.9922 0.314297 31.9922 0.703125V24.6094C31.9922 24.9982 31.6779 25.3125 31.2891 25.3125C30.9002 25.3125 30.5859 24.9982 30.5859 24.6094V1.40625H4.57031V33.75H21.4453C21.8341 33.75 22.1484 34.0643 22.1484 34.4531C22.1484 34.842 21.8341 35.1562 21.4453 35.1562Z" fill="black"/>
<path d="M21.6724 33.0469H5.97656C5.58773 33.0469 5.27344 32.7326 5.27344 32.3438V2.8125C5.27344 2.42367 5.58773 2.10938 5.97656 2.10938C6.36539 2.10938 6.67969 2.42367 6.67969 2.8125V31.6406H21.6724C22.0612 31.6406 22.3755 31.9549 22.3755 32.3438C22.3755 32.7326 22.0612 33.0469 21.6724 33.0469ZM29.1797 25.5396C28.7909 25.5396 28.4766 25.2253 28.4766 24.8365V2.8125C28.4766 2.42367 28.7909 2.10938 29.1797 2.10938C29.5685 2.10938 29.8828 2.42367 29.8828 2.8125V24.8365C29.8828 25.2253 29.5685 25.5396 29.1797 25.5396Z" fill="black"/>
<path d="M10.8972 28.1257C10.7109 28.1257 10.526 28.0526 10.3874 27.907L9.71947 27.2046C9.45158 26.9234 9.46353 26.4783 9.74408 26.2104C10.0253 25.9432 10.4704 25.9545 10.7383 26.235L11.4063 26.9374C11.6742 27.2187 11.6629 27.6638 11.3817 27.9317C11.246 28.061 11.0716 28.1257 10.8972 28.1257Z" fill="black"/>
<path d="M10.8972 28.1257C10.7172 28.1257 10.5372 28.0568 10.4001 27.9197C10.1252 27.6448 10.1252 27.2004 10.4001 26.9255L12.5102 24.8154C12.7851 24.5405 13.2295 24.5405 13.5044 24.8154C13.7793 25.0903 13.7793 25.5347 13.5044 25.8096L11.3943 27.9197C11.2572 28.0568 11.0772 28.1257 10.8972 28.1257ZM22.851 26.017H16.5229C16.1341 26.017 15.8198 25.7027 15.8198 25.3139C15.8198 24.9251 16.1341 24.6108 16.5229 24.6108H22.851C23.2399 24.6108 23.5542 24.9251 23.5542 25.3139C23.5542 25.7027 23.2399 26.017 22.851 26.017ZM20.0378 28.1257H16.5229C16.1341 28.1257 15.8198 27.8114 15.8198 27.4226C15.8198 27.0338 16.1341 26.7195 16.5229 26.7195H20.0378C20.4267 26.7195 20.741 27.0338 20.741 27.4226C20.741 27.8114 20.4267 28.1257 20.0378 28.1257ZM10.8972 22.5035C10.7109 22.5035 10.526 22.4304 10.3874 22.2849L9.71947 21.5824C9.45158 21.3012 9.46353 20.8561 9.74408 20.5882C10.0253 20.321 10.4704 20.3323 10.7383 20.6128L11.4063 21.3152C11.6742 21.5965 11.6629 22.0416 11.3817 22.3095C11.246 22.4388 11.0716 22.5035 10.8972 22.5035Z" fill="black"/>
<path d="M10.8972 22.5035C10.7172 22.5035 10.5372 22.4346 10.4001 22.2975C10.1252 22.0226 10.1252 21.5782 10.4001 21.3033L12.5102 19.1932C12.7851 18.9183 13.2295 18.9183 13.5044 19.1932C13.7793 19.4681 13.7793 19.9125 13.5044 20.1874L11.3943 22.2975C11.2572 22.4346 11.0772 22.5035 10.8972 22.5035ZM25.6642 20.3948H16.5229C16.1341 20.3948 15.8198 20.0805 15.8198 19.6917C15.8198 19.3029 16.1341 18.9886 16.5229 18.9886H25.6642C26.0531 18.9886 26.3674 19.3029 26.3674 19.6917C26.3674 20.0805 26.0531 20.3948 25.6642 20.3948ZM20.0378 22.5035H16.5229C16.1341 22.5035 15.8198 22.1892 15.8198 21.8004C15.8198 21.4115 16.1341 21.0973 16.5229 21.0973H20.0378C20.4267 21.0973 20.7409 21.4115 20.7409 21.8004C20.7409 22.1892 20.4267 22.5035 20.0378 22.5035ZM10.8972 11.2507C10.7109 11.2507 10.526 11.1776 10.3874 11.032L9.71947 10.3296C9.45158 10.0483 9.46353 9.60327 9.74408 9.33538C10.0253 9.06889 10.4704 9.07944 10.7383 9.35999L11.4063 10.0624C11.6742 10.3437 11.6629 10.7887 11.3817 11.0566C11.246 11.186 11.0716 11.2507 10.8972 11.2507Z" fill="black"/>
<path d="M10.8971 11.2508C10.7171 11.2508 10.5371 11.1819 10.4 11.0447C10.1251 10.7698 10.1251 10.3254 10.4 10.0505L12.5101 7.94044C12.785 7.66552 13.2294 7.66552 13.5043 7.94044C13.7793 8.21537 13.7793 8.65974 13.5043 8.93466L11.3943 11.0447C11.2571 11.1819 11.0771 11.2508 10.8971 11.2508ZM25.6642 9.14208H16.5229C16.134 9.14208 15.8197 8.82779 15.8197 8.43896C15.8197 8.05013 16.134 7.73583 16.5229 7.73583H25.6642C26.053 7.73583 26.3673 8.05013 26.3673 8.43896C26.3673 8.82779 26.053 9.14208 25.6642 9.14208ZM20.0378 11.2508H16.5229C16.134 11.2508 15.8197 10.9365 15.8197 10.5476C15.8197 10.1588 16.134 9.84451 16.5229 9.84451H20.0378C20.4266 9.84451 20.7409 10.1588 20.7409 10.5476C20.7409 10.9365 20.4266 11.2508 20.0378 11.2508Z" fill="black"/>
<path d="M10.8972 16.8813C10.7109 16.8813 10.526 16.8082 10.3874 16.6627L9.71947 15.9602C9.45158 15.679 9.46353 15.2339 9.74408 14.966C10.0253 14.6988 10.4704 14.7101 10.7383 14.9906L11.4063 15.6931C11.6742 15.9743 11.6629 16.4194 11.3817 16.6873C11.246 16.8166 11.0716 16.8813 10.8972 16.8813Z" fill="black"/>
<path d="M10.8971 16.8814C10.7171 16.8814 10.5371 16.8125 10.4 16.6754C10.1251 16.4004 10.1251 15.9561 10.4 15.6811L12.5101 13.5711C12.785 13.2961 13.2294 13.2961 13.5043 13.5711C13.7793 13.846 13.7793 14.2904 13.5043 14.5653L11.3943 16.6754C11.2571 16.8125 11.0771 16.8814 10.8971 16.8814Z" fill="black"/>
<path d="M25.6643 14.7727H16.5229C16.1341 14.7727 15.8198 14.4584 15.8198 14.0696C15.8198 13.6808 16.1341 13.3665 16.5229 13.3665H25.6643C26.0531 13.3665 26.3674 13.6808 26.3674 14.0696C26.3674 14.4584 26.0531 14.7727 25.6643 14.7727Z" fill="black"/>
<path d="M20.0379 16.8813H16.5229C16.1341 16.8813 15.8198 16.5671 15.8198 16.1782C15.8198 15.7894 16.1341 15.4751 16.5229 15.4751H20.0379C20.4267 15.4751 20.741 15.7894 20.741 16.1782C20.741 16.5671 20.4267 16.8813 20.0379 16.8813Z" fill="black"/>
<path d="M31.2891 45C25.4735 45 20.7422 40.2687 20.7422 34.4531C20.7422 28.6376 25.4735 23.9062 31.2891 23.9062C37.1046 23.9062 41.8359 28.6376 41.8359 34.4531C41.8359 40.2687 37.1046 45 31.2891 45ZM31.2891 25.3125C26.2491 25.3125 22.1484 29.4131 22.1484 34.4531C22.1484 39.4931 26.2491 43.5938 31.2891 43.5938C36.3291 43.5938 40.4297 39.4931 40.4297 34.4531C40.4297 29.4131 36.3291 25.3125 31.2891 25.3125Z" fill="black"/>
<path d="M28.4731 32.6947C28.0843 32.6947 27.77 32.3804 27.77 31.9916C27.77 31.6035 27.455 31.2885 27.0669 31.2885C26.6788 31.2885 26.3638 31.6035 26.3638 31.9916C26.3638 32.3804 26.0495 32.6947 25.6606 32.6947C25.2718 32.6947 24.9575 32.3804 24.9575 31.9916C24.9575 30.8286 25.9039 29.8822 27.0669 29.8822C28.2299 29.8822 29.1763 30.8286 29.1763 31.9916C29.1763 32.3804 28.862 32.6947 28.4731 32.6947ZM27.0669 39.0242C25.9039 39.0242 24.9575 38.0778 24.9575 36.9149C24.9575 36.526 25.2718 36.2117 25.6606 36.2117C26.0495 36.2117 26.3638 36.526 26.3638 36.9149C26.3638 37.303 26.6788 37.618 27.0669 37.618C27.455 37.618 27.77 37.303 27.77 36.9149C27.77 36.526 28.0843 36.2117 28.4731 36.2117C28.862 36.2117 29.1763 36.526 29.1763 36.9149C29.1763 38.0778 28.2299 39.0242 27.0669 39.0242Z" fill="black"/>
<path d="M25.6606 37.618C25.2718 37.618 24.9575 37.3037 24.9575 36.9149V31.9916C24.9575 31.6027 25.2718 31.2885 25.6606 31.2885C26.0495 31.2885 26.3638 31.6027 26.3638 31.9916V36.9149C26.3638 37.3037 26.0495 37.618 25.6606 37.618ZM28.4731 37.618C28.0843 37.618 27.77 37.3037 27.77 36.9149V31.9916C27.77 31.6027 28.0843 31.2885 28.4731 31.2885C28.862 31.2885 29.1763 31.6027 29.1763 31.9916V36.9149C29.1763 37.3037 28.862 37.618 28.4731 37.618ZM36.9099 32.6947C36.5211 32.6947 36.2068 32.3804 36.2068 31.9916C36.2068 31.6035 35.8918 31.2885 35.5037 31.2885C35.1156 31.2885 34.8006 31.6035 34.8006 31.9916C34.8006 32.3804 34.4863 32.6947 34.0974 32.6947C33.7086 32.6947 33.3943 32.3804 33.3943 31.9916C33.3943 30.8286 34.3407 29.8822 35.5037 29.8822C36.6667 29.8822 37.6131 30.8286 37.6131 31.9916C37.6131 32.3804 37.2988 32.6947 36.9099 32.6947ZM35.5037 39.0242C34.3407 39.0242 33.3943 38.0778 33.3943 36.9149C33.3943 36.526 33.7086 36.2117 34.0974 36.2117C34.4863 36.2117 34.8006 36.526 34.8006 36.9149C34.8006 37.303 35.1156 37.618 35.5037 37.618C35.8918 37.618 36.2068 37.303 36.2068 36.9149C36.2068 36.526 36.5211 36.2117 36.9099 36.2117C37.2988 36.2117 37.6131 36.526 37.6131 36.9149C37.6131 38.0778 36.6667 39.0242 35.5037 39.0242Z" fill="black"/>
<path d="M34.0977 37.618C33.7088 37.618 33.3945 37.3037 33.3945 36.9149V31.9916C33.3945 31.6027 33.7088 31.2885 34.0977 31.2885C34.4865 31.2885 34.8008 31.6027 34.8008 31.9916V36.9149C34.8008 37.3037 34.4865 37.618 34.0977 37.618ZM36.9102 37.618C36.5213 37.618 36.207 37.3037 36.207 36.9149V31.9916C36.207 31.6027 36.5213 31.2885 36.9102 31.2885C37.299 31.2885 37.6133 31.6027 37.6133 31.9916V36.9149C37.6133 37.3037 37.299 37.618 36.9102 37.618Z" fill="black"/>
<path d="M34.0974 34.101H28.4731C28.0843 34.101 27.77 33.7867 27.77 33.3978C27.77 33.009 28.0843 32.6947 28.4731 32.6947H34.0974C34.4863 32.6947 34.8006 33.009 34.8006 33.3978C34.8006 33.7867 34.4863 34.101 34.0974 34.101ZM34.0974 36.2103H28.4731C28.0843 36.2103 27.77 35.896 27.77 35.5072C27.77 35.1184 28.0843 34.8041 28.4731 34.8041H34.0974C34.4863 34.8041 34.8006 35.1184 34.8006 35.5072C34.8006 35.896 34.4863 36.2103 34.0974 36.2103ZM37.6131 35.1556H36.9099C36.5211 35.1556 36.2068 34.8413 36.2068 34.4525C36.2068 34.0637 36.5211 33.7494 36.9099 33.7494H37.6131C38.0019 33.7494 38.3162 34.0637 38.3162 34.4525C38.3162 34.8413 38.0019 35.1556 37.6131 35.1556ZM25.6606 35.1556H24.9575C24.5687 35.1556 24.2544 34.8413 24.2544 34.4525C24.2544 34.0637 24.5687 33.7494 24.9575 33.7494H25.6606C26.0495 33.7494 26.3638 34.0637 26.3638 34.4525C26.3638 34.8413 26.0495 35.1556 25.6606 35.1556Z" fill="black"/>
</g>
<defs>
<clipPath id="clip0_3025_3356">
<rect width="45" height="45" fill="white"/>
</clipPath>
</defs>
</svg>
