<svg width="63" height="63" viewBox="0 0 63 63" fill="none" xmlns="http://www.w3.org/2000/svg">
<path d="M10.8889 58C9.26944 58 7.88261 57.4239 6.72839 56.2716C5.57613 55.1174 5 53.7306 5 52.1111V10.8889C5 9.26944 5.57613 7.88261 6.72839 6.72839C7.88261 5.57613 9.26944 5 10.8889 5H52.1111C53.7306 5 55.1174 5.57613 56.2716 6.72839C57.4239 7.88261 58 9.26944 58 10.8889V52.1111C58 53.7306 57.4239 55.1174 56.2716 56.2716C55.1174 57.4239 53.7306 58 52.1111 58H10.8889ZM47.0319 52.1111H52.1111V47.0319L47.0319 52.1111ZM13.3917 52.1111H18.7653L27.5986 43.2778H33.8556L25.0222 52.1111H29.7333L38.5667 43.2778H44.8236L35.9903 52.1111H40.775L49.6083 43.2778H52.1111V10.8889H10.8889V48.3569L15.9681 43.2778H22.225L13.3917 52.1111ZM18.6917 37.3889L14.5694 33.2667L27.5986 20.2375L33.4875 26.1264L44.3083 15.3056L48.4306 19.4278L33.4875 34.4444L27.5986 28.5556L18.6917 37.3889Z" fill="#3B3A37"/>
</svg>
