<svg width="43" height="43" viewBox="0 0 43 43" fill="none" xmlns="http://www.w3.org/2000/svg">
<path d="M37.0747 6.02002H36.8855C36.4525 6.03163 36.1106 6.39111 36.1201 6.82412V9.51592C36.1106 9.94893 36.4525 10.3084 36.8855 10.32H37.0747C37.5077 10.3084 37.8495 9.94893 37.8401 9.51592V6.82412C37.8495 6.39111 37.5077 6.03163 37.0747 6.02002Z" fill="white"/>
<path d="M6.1147 6.02002H5.9255C5.49249 6.03163 5.15064 6.39111 5.1601 6.82412V9.51592C5.15064 9.94893 5.49249 10.3084 5.9255 10.32H6.1147C6.54771 10.3084 6.88956 9.94893 6.8801 9.51592V6.82412C6.88956 6.39111 6.54771 6.03163 6.1147 6.02002Z" fill="white"/>
<path d="M38.9943 7.70516C38.7373 7.30572 38.2705 7.69503 38.2705 8.17V8.17C38.2705 8.64496 38.7373 9.03427 38.9943 8.63483C39.0805 8.50082 39.1305 8.34128 39.1305 8.17C39.1305 7.99872 39.0805 7.83918 38.9943 7.70516Z" fill="white"/>
<path d="M4.00659 8.63483C4.26356 9.03427 4.73036 8.64496 4.73036 8.17V8.17C4.73036 7.69503 4.26356 7.30572 4.00659 7.70516C3.92037 7.83918 3.87036 7.99872 3.87036 8.17C3.87036 8.34128 3.92037 8.50082 4.00659 8.63483Z" fill="white"/>
<path d="M34.9249 4.72998H34.7357C34.2756 4.77986 33.9376 5.18449 33.9703 5.64588V5.64588C33.9703 6.56494 33.2252 7.30998 32.3062 7.30998H10.6944C9.77533 7.30998 9.03029 6.56494 9.03029 5.64588V5.64588C9.06297 5.18449 8.72499 4.77986 8.26489 4.72998H8.07569C7.61559 4.77986 7.27761 5.18449 7.31029 5.64588V10.6941C7.27761 11.1555 7.61559 11.5601 8.07569 11.61H8.26489C8.72499 11.5601 9.06297 11.1555 9.03029 10.6941V10.105C9.03029 9.51127 9.51158 9.02998 10.1053 9.02998V9.02998C10.699 9.02998 11.1803 9.51127 11.1803 10.105V15.48C11.1824 16.0923 11.5101 16.6573 12.0403 16.9635L16.5834 19.6407C17.4985 20.18 18.0603 21.163 18.0603 22.2253V23.0801C18.0603 24.0977 17.5445 25.0459 16.6902 25.5987L11.9672 28.6552C11.4766 28.9721 11.1803 29.516 11.1803 30.1V38.27H14.6203V32.6689C14.6203 31.6516 15.1358 30.7036 15.9898 30.1507L17.3162 29.2918C17.8019 28.9773 18.3681 28.81 18.9467 28.81H24.0538C24.6324 28.81 25.1987 28.9773 25.6844 29.2918L27.0108 30.1507C27.8647 30.7036 28.3803 31.6516 28.3803 32.6689V38.27H31.8203V30.1C31.8203 29.516 31.524 28.9721 31.0334 28.6552L26.3104 25.5987C25.4561 25.0459 24.9403 24.0977 24.9403 23.0801V22.2253C24.9403 21.163 25.502 20.18 26.4172 19.6407L30.9603 16.9635C31.4905 16.6573 31.8181 16.0923 31.8203 15.48V10.105C31.8203 9.51127 32.3016 9.02998 32.8953 9.02998V9.02998C33.489 9.02998 33.9703 9.51127 33.9703 10.105V10.6941C33.9376 11.1555 34.2756 11.5601 34.7357 11.61H34.9249C35.385 11.5601 35.723 11.1555 35.6903 10.6941V5.64588C35.723 5.18449 35.385 4.77986 34.9249 4.72998ZM28.3803 14.4953L23.7568 17.2156C23.2957 17.4869 22.7705 17.63 22.2355 17.63H20.7651C20.2301 17.63 19.7049 17.4869 19.2438 17.2156L14.6203 14.4953V9.02998H28.3803V14.4953Z" fill="white"/>
<path d="M24.9401 12.9C24.9401 14.7997 23.3998 16.34 21.5001 16.34C19.6003 16.34 18.0601 14.7997 18.0601 12.9C18.0601 11.0003 19.6003 9.45999 21.5001 9.45999C23.3998 9.45999 24.9401 11.0003 24.9401 12.9Z" fill="white"/>
</svg>
