<svg width="41" height="41" viewBox="0 0 41 41" fill="none" xmlns="http://www.w3.org/2000/svg">
<rect width="41" height="41" fill="url(#paint0_linear_703_5)"/>
<path d="M35.3508 5.73999H35.1704C34.7575 5.75106 34.4316 6.09382 34.4406 6.50669V9.07329C34.4316 9.48616 34.7575 9.82892 35.1704 9.83999H35.3508C35.7637 9.82892 36.0896 9.48616 36.0806 9.07329V6.50669C36.0896 6.09382 35.7637 5.75106 35.3508 5.73999Z" fill="#3B3A37"/>
<path d="M5.83031 5.73999H5.6499C5.23703 5.75106 4.91108 6.09382 4.9201 6.50669V9.07329C4.91108 9.48616 5.23703 9.82892 5.6499 9.83999H5.83031C6.24318 9.82892 6.56912 9.48616 6.5601 9.07329V6.50669C6.56912 6.09382 6.24318 5.75106 5.83031 5.73999Z" fill="#3B3A37"/>
<path d="M37.1803 7.34676C36.9353 6.96589 36.4902 7.3371 36.4902 7.78997V7.78997C36.4902 8.24284 36.9353 8.61405 37.1803 8.23319C37.2626 8.10541 37.3102 7.95328 37.3102 7.78997C37.3102 7.62666 37.2626 7.47454 37.1803 7.34676Z" fill="#3B3A37"/>
<path d="M3.82032 8.23319C4.06534 8.61405 4.51043 8.24284 4.51043 7.78997V7.78997C4.51043 7.3371 4.06534 6.96589 3.82032 7.34676C3.73811 7.47454 3.69043 7.62666 3.69043 7.78997C3.69043 7.95328 3.73811 8.10541 3.82032 8.23319Z" fill="#3B3A37"/>
<path d="M33.301 4.51001H33.1206C32.6819 4.55757 32.3597 4.94338 32.3908 5.38331V5.38331C32.3908 6.25962 31.6804 6.97001 30.8041 6.97001H10.1975C9.32122 6.97001 8.61083 6.25962 8.61083 5.38331V5.38331C8.64199 4.94338 8.31973 4.55757 7.88103 4.51001H7.70063C7.26193 4.55757 6.93967 4.94338 6.97083 5.38331V10.1967C6.93967 10.6366 7.26193 11.0225 7.70063 11.07H7.88103C8.31973 11.0225 8.64199 10.6366 8.61083 10.1967V9.63501C8.61083 9.06892 9.06974 8.61001 9.63583 8.61001V8.61001C10.2019 8.61001 10.6608 9.06892 10.6608 9.63501V14.76C10.6629 15.3439 10.9753 15.8826 11.4808 16.1745L15.7439 18.6867C16.6591 19.226 17.2208 20.209 17.2208 21.2713V21.9307C17.2208 22.9483 16.705 23.8965 15.8507 24.4494L11.4111 27.3224C10.9433 27.6246 10.6608 28.1432 10.6608 28.7V36.49H13.9408V31.2253C13.9408 30.208 14.4564 29.26 15.3103 28.7071L16.4767 27.9518C16.9624 27.6373 17.5287 27.47 18.1073 27.47H22.8944C23.473 27.47 24.0392 27.6373 24.5249 27.9518L25.6914 28.7071C26.5453 29.26 27.0608 30.208 27.0608 31.2253V36.49H30.3408V28.7C30.3408 28.1432 30.0583 27.6246 29.5905 27.3224L25.1509 24.4494C24.2966 23.8965 23.7808 22.9483 23.7808 21.9307V21.2713C23.7808 20.209 24.3426 19.226 25.2578 18.6867L29.5208 16.1745C30.0264 15.8826 30.3388 15.3439 30.3408 14.76V9.63501C30.3408 9.06892 30.7997 8.61001 31.3658 8.61001V8.61001C31.9319 8.61001 32.3908 9.06892 32.3908 9.63501V10.1967C32.3597 10.6366 32.6819 11.0225 33.1206 11.07H33.301C33.7397 11.0225 34.062 10.6366 34.0308 10.1967V5.38331C34.062 4.94338 33.7397 4.55757 33.301 4.51001ZM27.0608 13.8211L22.6852 16.3957C22.2241 16.667 21.6988 16.81 21.1638 16.81H19.8378C19.3028 16.81 18.7776 16.667 18.3165 16.3957L13.9408 13.8211V8.61001H27.0608V13.8211Z" fill="#3B3A37"/>
<path d="M23.7807 12.3C23.7807 14.1114 22.3121 15.58 20.5007 15.58C18.6893 15.58 17.2207 14.1114 17.2207 12.3C17.2207 10.4886 18.6893 9.02002 20.5007 9.02002C22.3121 9.02002 23.7807 10.4886 23.7807 12.3Z" fill="#3B3A37"/>
<defs>
<linearGradient id="paint0_linear_703_5" x1="20.5" y1="0" x2="21" y2="50" gradientUnits="userSpaceOnUse">
<stop stop-color="#FFBF00"/>
<stop offset="1" stop-color="#FFAD31"/>
</linearGradient>
</defs>
</svg>
