<svg width="44" height="43" viewBox="0 0 44 43" fill="none" xmlns="http://www.w3.org/2000/svg">
<path d="M37.5748 6.02002H37.3856C36.9526 6.03163 36.6107 6.39111 36.6202 6.82412V9.51592C36.6107 9.94893 36.9526 10.3084 37.3856 10.32H37.5748C38.0078 10.3084 38.3496 9.94893 38.3402 9.51592V6.82412C38.3496 6.39111 38.0078 6.03163 37.5748 6.02002Z" fill="#3B3A37"/>
<path d="M6.61483 6.02002H6.42563C5.99262 6.03163 5.65077 6.39111 5.66023 6.82412V9.51592C5.65077 9.94893 5.99262 10.3084 6.42563 10.32H6.61483C7.04784 10.3084 7.38969 9.94893 7.38023 9.51592V6.82412C7.38969 6.39111 7.04784 6.03163 6.61483 6.02002Z" fill="#3B3A37"/>
<path d="M39.4942 7.70522C39.2372 7.30578 38.7704 7.69509 38.7704 8.17006C38.7704 8.64502 39.2372 9.03434 39.4942 8.63489C39.5804 8.50088 39.6304 8.34134 39.6304 8.17006C39.6304 7.99878 39.5804 7.83924 39.4942 7.70522Z" fill="#3B3A37"/>
<path d="M4.50659 8.63489C4.76356 9.03434 5.23036 8.64502 5.23036 8.17006C5.23036 7.69509 4.76356 7.30578 4.50659 7.70522C4.42037 7.83924 4.37036 7.99878 4.37036 8.17006C4.37036 8.34134 4.42037 8.50088 4.50659 8.63489Z" fill="#3B3A37"/>
<path d="M35.4249 4.72998H35.2357C34.7756 4.77986 34.4376 5.18449 34.4703 5.64588C34.4703 6.56494 33.7252 7.30998 32.8062 7.30998H11.1944C10.2753 7.30998 9.53029 6.56494 9.53029 5.64588C9.56297 5.18449 9.22499 4.77986 8.76489 4.72998H8.57569C8.11559 4.77986 7.77761 5.18449 7.81029 5.64588V10.6941C7.77761 11.1555 8.11559 11.5601 8.57569 11.61H8.76489C9.22499 11.5601 9.56297 11.1555 9.53029 10.6941V10.105C9.53029 9.51127 10.0116 9.02998 10.6053 9.02998C11.199 9.02998 11.6803 9.51127 11.6803 10.105V15.48C11.6824 16.0923 12.0101 16.6573 12.5403 16.9635L17.0834 19.6407C17.9985 20.18 18.5603 21.163 18.5603 22.2253V23.0801C18.5603 24.0977 18.0445 25.0459 17.1902 25.5987L12.4672 28.6552C11.9766 28.9721 11.6803 29.516 11.6803 30.1V38.27H15.1203V32.6689C15.1203 31.6516 15.6358 30.7036 16.4898 30.1507L17.8162 29.2918C18.3019 28.9773 18.8681 28.81 19.4467 28.81H24.5538C25.1324 28.81 25.6987 28.9773 26.1844 29.2918L27.5108 30.1507C28.3647 30.7036 28.8803 31.6516 28.8803 32.6689V38.27H32.3203V30.1C32.3203 29.516 32.024 28.9721 31.5334 28.6552L26.8104 25.5987C25.9561 25.0459 25.4403 24.0977 25.4403 23.0801V22.2253C25.4403 21.163 26.002 20.18 26.9172 19.6407L31.4603 16.9635C31.9905 16.6573 32.3181 16.0923 32.3203 15.48V10.105C32.3203 9.51127 32.8016 9.02998 33.3953 9.02998C33.989 9.02998 34.4703 9.51127 34.4703 10.105V10.6941C34.4376 11.1555 34.7756 11.5601 35.2357 11.61H35.4249C35.885 11.5601 36.223 11.1555 36.1903 10.6941V5.64588C36.223 5.18449 35.885 4.77986 35.4249 4.72998ZM28.8803 14.4953L24.2568 17.2156C23.7957 17.4869 23.2705 17.63 22.7355 17.63H21.2651C20.7301 17.63 20.2049 17.4869 19.7438 17.2156L15.1203 14.4953V9.02998H28.8803V14.4953Z" fill="#3B3A37"/>
<path d="M25.4401 12.9C25.4401 14.7997 23.8998 16.34 22.0001 16.34C20.1003 16.34 18.5601 14.7997 18.5601 12.9C18.5601 11.0002 20.1003 9.45996 22.0001 9.45996C23.8998 9.45996 25.4401 11.0002 25.4401 12.9Z" fill="#3B3A37"/>
</svg>
