<svg width="45" height="45" viewBox="0 0 45 45" fill="none" xmlns="http://www.w3.org/2000/svg">
<path d="M20.2154 30.6989C19.4346 30.7239 18.6566 30.5946 17.9257 30.3183C17.1948 30.0419 16.5253 29.624 15.9556 29.0884C14.8049 28.0067 14.1301 26.5111 14.0797 24.9308C14.0292 23.3504 14.6072 21.8147 15.6865 20.6614C16.7658 19.5082 18.258 18.8319 19.8349 18.7813C20.1502 18.7623 20.4602 18.8697 20.6966 19.0798C20.933 19.2899 21.0764 19.5855 21.0953 19.9016C21.1142 20.2176 21.0071 20.5283 20.7975 20.7652C20.5879 21.0021 20.2929 21.1459 19.9776 21.1648C19.2946 21.2122 18.6397 21.4555 18.091 21.8657C17.5423 22.2759 17.1229 22.8357 16.883 23.4783C16.643 24.1208 16.5926 24.819 16.7377 25.4895C16.8828 26.16 17.2174 26.7745 17.7015 27.2597C18.1855 27.7448 18.7986 28.0801 19.4676 28.2256C20.1366 28.371 20.8332 28.3205 21.4744 28.08C22.1155 27.8395 22.674 27.4192 23.0833 26.8692C23.4926 26.3193 23.7354 25.6629 23.7827 24.9784C23.807 24.6644 23.952 24.3722 24.1872 24.1632C24.4223 23.9542 24.7291 23.8449 25.0431 23.8582C25.1994 23.8673 25.3523 23.9072 25.4931 23.9757C25.6339 24.0442 25.7598 24.1399 25.8637 24.2572C25.9675 24.3746 26.0472 24.5113 26.0982 24.6596C26.1492 24.8079 26.1705 24.9649 26.1609 25.1214C26.064 26.6348 25.3951 28.0542 24.2905 29.0905C23.1858 30.1268 21.7285 30.702 20.2154 30.6989ZM10.6788 18.7813C10.4226 18.775 10.1741 18.692 9.96539 18.5429C9.7131 18.3533 9.5463 18.071 9.5017 17.7581C9.4571 17.4452 9.53835 17.1273 9.72757 16.8745C10.9496 15.2445 12.5336 13.9221 14.3539 13.0119C16.1743 12.1018 18.1811 11.6289 20.2154 11.6308C22.3289 11.6273 24.411 12.1429 26.2798 13.1324C26.5573 13.2841 26.7633 13.5401 26.8525 13.844C26.9417 14.148 26.9068 14.475 26.7554 14.7532C26.604 15.0313 26.3486 15.2378 26.0453 15.3272C25.7421 15.4166 25.4158 15.3816 25.1382 15.2299C22.8852 14.0495 20.2854 13.7155 17.8082 14.2881C15.331 14.8607 13.1397 16.3022 11.6301 18.3523C11.5134 18.4902 11.3674 18.6003 11.2029 18.6745C11.0383 18.7487 10.8593 18.7852 10.6788 18.7813Z" fill="#2B3344"/>
<path d="M20.2148 37.8494C16.7477 37.8431 13.4244 36.4599 10.9728 34.0028C8.52114 31.5457 7.14105 28.215 7.13477 24.7401C7.13818 23.8598 7.22579 22.9818 7.39637 22.1182C7.4276 21.9617 7.48928 21.8129 7.57789 21.6803C7.6665 21.5477 7.78031 21.4339 7.91281 21.3453C8.04531 21.2568 8.19391 21.1953 8.35013 21.1643C8.50635 21.1333 8.66713 21.1335 8.82328 21.1648C8.97943 21.1961 9.12791 21.2579 9.26022 21.3467C9.39254 21.4356 9.50611 21.5496 9.59444 21.6824C9.68278 21.8152 9.74415 21.9641 9.77505 22.1207C9.80595 22.2773 9.80579 22.4384 9.77456 22.5949C9.47702 24.0635 9.48983 25.5782 9.81216 27.0415C10.1345 28.5048 10.7592 29.8842 11.646 31.0907C12.5328 32.2973 13.662 33.3041 14.9608 34.0465C16.2596 34.7889 17.6992 35.2502 19.1869 35.4008C20.6745 35.5514 22.1771 35.3879 23.5978 34.9209C25.0185 34.4538 26.3258 33.6936 27.4354 32.6892C28.545 31.6848 29.4323 30.4585 30.0401 29.0893C30.6479 27.7202 30.9627 26.2386 30.9642 24.7401C30.9667 23.021 30.5503 21.3274 29.7513 19.8062C29.6764 19.6685 29.6292 19.5173 29.6126 19.3613C29.5959 19.2053 29.6101 19.0476 29.6542 18.8971C29.6984 18.7466 29.7717 18.6063 29.87 18.4842C29.9683 18.3621 30.0896 18.2605 30.227 18.1854C30.3644 18.1103 30.5152 18.063 30.6709 18.0463C30.8265 18.0296 30.9839 18.0438 31.1341 18.0881C31.2842 18.1324 31.4242 18.2058 31.5461 18.3043C31.6679 18.4028 31.7692 18.5244 31.8442 18.6621C32.8149 20.5393 33.3129 22.6259 33.2948 24.7401C33.2886 28.215 31.9085 31.5457 29.4568 34.0028C27.0052 36.4599 23.6819 37.8431 20.2148 37.8494Z" fill="#2B3344"/>
<path d="M20.2146 44.9999C14.8534 44.9999 9.7117 42.8654 5.92072 39.0659C2.12975 35.2664 0 30.1133 0 24.74C0 19.3668 2.12975 14.2136 5.92072 10.4141C9.7117 6.61465 14.8534 4.48013 20.2146 4.48013C22.4657 4.47618 24.7012 4.85497 26.826 5.60038C26.977 5.65032 27.1164 5.7301 27.2361 5.83499C27.3558 5.93988 27.4532 6.06776 27.5227 6.21107C27.5922 6.35438 27.6324 6.51019 27.6408 6.66931C27.6491 6.82843 27.6256 6.98762 27.5715 7.13746C27.5174 7.2873 27.4339 7.42475 27.3259 7.54168C27.2179 7.65862 27.0876 7.75265 26.9427 7.81824C26.7978 7.88382 26.6413 7.91961 26.4823 7.9235C26.3234 7.9274 26.1653 7.8993 26.0174 7.84089C24.1521 7.18885 22.1901 6.85842 20.2146 6.86365C16.6869 6.86365 13.2384 7.91208 10.3052 9.87636C7.37204 11.8406 5.0859 14.6325 3.73591 17.899C2.38591 21.1655 2.03269 24.7598 2.72091 28.2275C3.40913 31.6952 5.10789 34.8805 7.60236 37.3805C10.0968 39.8806 13.275 41.5831 16.7349 42.2729C20.1948 42.9626 23.7811 42.6086 27.0403 41.2556C30.2995 39.9026 33.0852 37.6113 35.0451 34.6716C37.0049 31.7318 38.051 28.2756 38.051 24.74C38.0562 22.7601 37.7266 20.7937 37.076 18.9242C37.0177 18.776 36.9897 18.6175 36.9935 18.4582C36.9974 18.2989 37.0331 18.142 37.0986 17.9968C37.164 17.8516 37.2578 17.721 37.3745 17.6128C37.4912 17.5045 37.6283 17.4208 37.7778 17.3666C37.9273 17.3124 38.0862 17.2888 38.2449 17.2972C38.4037 17.3056 38.5592 17.3458 38.7021 17.4155C38.8451 17.4852 38.9727 17.5829 39.0774 17.7028C39.182 17.8228 39.2616 17.9625 39.3115 18.1138C40.0552 20.2433 40.4332 22.4838 40.4292 24.74C40.4229 30.1113 38.2912 35.2608 34.5015 39.0589C30.7119 42.857 25.5739 44.9936 20.2146 44.9999Z" fill="#2B3344"/>
<path d="M20.2147 25.9319C20.0587 25.9338 19.9041 25.903 19.7608 25.8415C19.6174 25.7799 19.4885 25.6889 19.3823 25.5744C19.2686 25.4674 19.1779 25.3382 19.1159 25.1947C19.0539 25.0512 19.022 24.8965 19.022 24.7402C19.022 24.5838 19.0539 24.4291 19.1159 24.2857C19.1779 24.1422 19.2686 24.013 19.3823 23.906L39.4067 3.83676C39.516 3.72721 39.6457 3.64031 39.7886 3.58102C39.9314 3.52173 40.0844 3.49121 40.239 3.49121C40.3936 3.49121 40.5467 3.52173 40.6895 3.58102C40.8323 3.64031 40.9621 3.72721 41.0714 3.83676C41.1807 3.94631 41.2674 4.07637 41.3266 4.21951C41.3857 4.36265 41.4162 4.51606 41.4162 4.67099C41.4162 4.82592 41.3857 4.97934 41.3266 5.12247C41.2674 5.26561 41.1807 5.39567 41.0714 5.50522L21.047 25.5744C20.9409 25.6889 20.812 25.7799 20.6686 25.8415C20.5253 25.903 20.3706 25.9338 20.2147 25.9319Z" fill="#2B3344"/>
<path d="M37.0281 15.8258H36.7665L31.2967 14.5625C31.0793 14.5195 30.8796 14.4127 30.7229 14.2556C30.5663 14.0986 30.4597 13.8985 30.4167 13.6806L29.1563 8.19852C29.1101 8.00452 29.1143 7.8019 29.1684 7.60997C29.2226 7.41804 29.3248 7.2432 29.4655 7.10211L36.1957 0.356758C36.3433 0.203531 36.5299 0.0936678 36.7353 0.0390534C36.9407 -0.015561 37.1571 -0.0128468 37.3611 0.0469018C37.5659 0.10567 37.7512 0.218528 37.8977 0.373671C38.0441 0.528815 38.1462 0.720543 38.1934 0.928802L39.2874 5.69583L44.0438 6.79225C44.3591 6.86179 44.634 7.05403 44.808 7.3267C44.9819 7.59937 45.0406 7.93012 44.9713 8.24619C44.9019 8.56227 44.7101 8.83777 44.438 9.0121C44.1659 9.18643 43.8359 9.2453 43.5206 9.17576L38.0507 7.79333C37.8247 7.74114 37.6179 7.62631 37.4539 7.46194C37.2899 7.29757 37.1753 7.09028 37.1232 6.86375L36.3622 3.47916L31.6058 8.24619L32.5571 12.3458L36.6476 13.2992L39.7155 10.2483C39.9377 10.03 40.2366 9.90767 40.5478 9.90767C40.8591 9.90767 41.1579 10.03 41.3802 10.2483C41.4916 10.3591 41.5801 10.4909 41.6405 10.6362C41.7008 10.7814 41.7319 10.9372 41.7319 11.0945C41.7319 11.2518 41.7008 11.4076 41.6405 11.5528C41.5801 11.698 41.4916 11.8299 41.3802 11.9406L37.8605 15.4682C37.7543 15.5827 37.6254 15.6737 37.482 15.7353C37.3387 15.7969 37.1841 15.8277 37.0281 15.8258Z" fill="#2B3344"/>
</svg>
