<svg width="63" height="63" viewBox="0 0 63 63" fill="none" xmlns="http://www.w3.org/2000/svg">
<path d="M31.5 57.75C27.8688 57.75 24.4563 57.0605 21.2625 55.6815C18.0688 54.3042 15.2906 52.4344 12.9281 50.0719C10.5656 47.7094 8.69575 44.9312 7.3185 41.7375C5.9395 38.5437 5.25 35.1312 5.25 31.5C5.25 27.8688 5.9395 24.4563 7.3185 21.2625C8.69575 18.0688 10.5656 15.2906 12.9281 12.9281C15.2906 10.5656 18.0688 8.69487 21.2625 7.31587C24.4563 5.93862 27.8688 5.25 31.5 5.25C35.1312 5.25 38.5437 5.93862 41.7375 7.31587C44.9312 8.69487 47.7094 10.5656 50.0719 12.9281C52.4344 15.2906 54.3042 18.0688 55.6815 21.2625C57.0605 24.4563 57.75 27.8688 57.75 31.5V52.5C57.75 53.9438 57.2364 55.1801 56.2091 56.2091C55.1801 57.2364 53.9438 57.75 52.5 57.75H31.5ZM31.5 52.5C37.3625 52.5 42.3281 50.4656 46.3969 46.3969C50.4656 42.3281 52.5 37.3625 52.5 31.5C52.5 25.6375 50.4656 20.6719 46.3969 16.6031C42.3281 12.5344 37.3625 10.5 31.5 10.5C25.6375 10.5 20.6719 12.5344 16.6031 16.6031C12.5344 20.6719 10.5 25.6375 10.5 31.5C10.5 32.5062 10.5656 33.4906 10.6969 34.4531C10.8281 35.4156 11.025 36.3562 11.2875 37.275L21 27.5625L29.6625 34.8469L38.2594 26.25H34.125V21H47.25V34.125H42V29.9906L29.925 42L21.3281 34.65L13.5844 42.3937C15.4219 45.4125 17.9051 47.852 21.0341 49.7122C24.1614 51.5707 27.65 52.5 31.5 52.5ZM51.1875 53.8125C51.9312 53.8125 52.5542 53.5605 53.0565 53.0565C53.5605 52.5542 53.8125 51.9312 53.8125 51.1875C53.8125 50.4438 53.5605 49.8208 53.0565 49.3185C52.5542 48.8145 51.9312 48.5625 51.1875 48.5625C50.4438 48.5625 49.8208 48.8145 49.3185 49.3185C48.8145 49.8208 48.5625 50.4438 48.5625 51.1875C48.5625 51.9312 48.8145 52.5542 49.3185 53.0565C49.8208 53.5605 50.4438 53.8125 51.1875 53.8125Z" fill="#3B3A37"/>
</svg>
