<svg width="148" height="148" viewBox="0 0 148 148" fill="none" xmlns="http://www.w3.org/2000/svg">
<path d="M16.4444 148C11.9222 148 8.04955 146.391 4.82644 143.174C1.60881 139.95 0 136.078 0 131.556V16.4444C0 11.9222 1.60881 8.04955 4.82644 4.82644C8.04955 1.60881 11.9222 0 16.4444 0H131.556C136.078 0 139.95 1.60881 143.174 4.82644C146.391 8.04955 148 11.9222 148 16.4444V131.556C148 136.078 146.391 139.95 143.174 143.174C139.95 146.391 136.078 148 131.556 148H16.4444ZM117.372 131.556H131.556V117.372L117.372 131.556ZM23.4333 131.556H38.4389L63.1056 106.889H80.5778L55.9111 131.556H69.0667L93.7333 106.889H111.206L86.5389 131.556H99.9L124.567 106.889H131.556V16.4444H16.4444V121.072L30.6278 106.889H48.1L23.4333 131.556ZM38.2333 90.4444L26.7222 78.9333L63.1056 42.55L79.55 58.9944L109.767 28.7778L121.278 40.2889L79.55 82.2222L63.1056 65.7778L38.2333 90.4444Z" fill="#3B3A37" fill-opacity="0.17"/>
</svg>
